<svg data-name="Layer 1" version="1.1" viewBox="0 0 906.1 1e3" xmlns="http://www.w3.org/2000/svg"><g fill="#808080"><path d="M436.2 0a355.3 355.3 0 0 0-272.5 148.2A357.5 357.5 0 0 0 111 258a360 360 0 0 0-12.8 75.3c-.5 6.2-.5 36 0 42.5a369.9 369.9 0 0 0 8.2 57.1 355.6 355.6 0 0 0 95.1 172.3 348.3 348.3 0 0 0 75.2 57.3 356.3 356.3 0 0 0 143.2 45c9.9.9 13.6 1 28.4 1.2 15.6.1 22 0 32-.8a354.8 354.8 0 0 0 116.1-29.6c5.9-2.6 20-9.6 26-12.8a357.3 357.3 0 0 0 59.1-40.5 382.5 382.5 0 0 0 41.6-41.5 356.5 356.5 0 0 0 75.7-154 349 349 0 0 0 7.9-85.3c-1.1-45.2-11-89-29.7-132.4a359.2 359.2 0 0 0-56.7-89.6 372.8 372.8 0 0 0-38.8-38.4A356.2 356.2 0 0 0 484.3 1.2C473.9.2 470.9 0 454.5 0h-18.3Zm39.4 45.3a307.2 307.2 0 0 1 115.9 31.8 308 308 0 0 1 161.4 201.8 319 319 0 0 1 9 65 317 317 0 0 1-2.7 48.8 308 308 0 0 1-68.4 156.7 322.9 322.9 0 0 1-37.5 37.8A308.6 308.6 0 0 1 492.8 658a275 275 0 0 1-39 2.5 256.4 256.4 0 0 1-28.3-1.3 308.3 308.3 0 0 1-134.9-45.5A301.4 301.4 0 0 1 236 570 307.9 307.9 0 0 1 368.4 56.7 314 314 0 0 1 438 45a577 577 0 0 1 37.7.4Z"/><path d="M409.3 139.8a24.3 24.3 0 0 1-2.6.8c-3.4.9-9.4 2.7-15 4.6a283.1 283.1 0 0 0-71 34.7c-29.7 20-59.4 47-92.6 84.3q-34 38-49.3 77.8a158.8 158.8 0 0 0-11.3 73l.2 1 .3-.7a259 259 0 0 1 9.4-18.1 375 375 0 0 1 52.4-70.8c15.3-16.4 27.4-26.3 39.3-32a37.2 37.2 0 0 1 19.6-4.6c5 .6 8.2 2 11.4 5.3a17.1 17.1 0 0 1 4.6 7.6l.5 2 .1 84.6c0 55.3 0 85.5-.2 87.2a20 20 0 0 1-2 7.7c-3.2 6.7-10.6 9.9-21 9a66 66 0 0 1-11.8-2.3c-1-.3-1.5-.4-1.4-.2l1.4 2a151 151 0 0 0 30.5 30.3c31.2 23.3 78 40.5 128 47.2l6.2.8 1.4-1.5 8-8.6 27.5-29.1c7.9-8.3 14.4-15.2 14.6-15.2s3.2 2.5 6.8 5.5l26.7 22.6 14.5 12.3c.4.3 1-.1 4-2a284.2 284.2 0 0 0 40.7-30.4c5.3-4.6 20-19.4 25-25a383.7 383.7 0 0 0 38.5-51.2c7-11 15-25.4 18.7-33.5l1.2-2.5-7.1 7a215.3 215.3 0 0 1-34.8 29.2c-18.5 12.1-33.8 16-45.5 11.5a20.9 20.9 0 0 1-7-4.5l-1.1-1.3-.2-3c-.5-8.7-1-27.9-1.6-62.7-.6-31-.6-106.6-.2-119.5.5-11.2.8-17.2 1.3-20.5.3-2.5.4-2.7 2.5-6.3a354 354 0 0 1 23-33.6 1164.1 1164.1 0 0 1 37.4-46.8c.4-.5.4-.5-.7-.3a258.4 258.4 0 0 0-132.1 70.6l-3.9 4-1.2-1c-7.4-5.2-22.2-8.5-37.2-8.2h-4.9l1.7 1.1a55.7 55.7 0 0 1 15.4 16 64.5 64.5 0 0 1 9.3 21.8l.7 3.2v90.8l.1 90.8-3.3 2.6a110.5 110.5 0 0 1-41.6 22.5 33 33 0 0 1-29.2-7 39.3 39.3 0 0 1-8.7-11.4l-1-1.9V346.6c0-59.9 0-108.9-.1-108.8-5.3 2.7-7.2 3.3-10.7 3.3a12.1 12.1 0 0 1-9.5-4c-3-3-4.7-6.5-6.2-12.5-1.2-4.5-1.6-8-1.7-15.2-.2-7.6.1-10.7 1.6-16.3a67.2 67.2 0 0 1 10.1-21.7 116.7 116.7 0 0 1 33.7-31.6c.3-.3-.1-.3-.6 0Z"/><path d="M684.8 183.7a23.7 23.7 0 0 1-7.3 5.5 45.8 45.8 0 0 1-21.7 3.7c-4 0-4.7 0-5.1.5-.2.2-10.5 14.7-22.7 32.3l-22.3 31.8-1.2 9.3-1.2 9.4s11 .2 24.2.2h24.3l-.2.8-3.2 26c0 .6.8.5 13.7.5l13.8-.1.2-2.2.4-3v-.8H674c-1.8 0-2.5-.1-2.5-.4l1-7.1 1.3-10.3.4-3.4h13.2l.5-3.8 1.8-14.7c0-.3-1.3-.3-6.4-.3a52.2 52.2 0 0 1-6.7-.2s.4-4.3 1.1-9.4l2.3-16 3.9-28.3c1.7-12 2.9-21.9 2.9-22a11.3 11.3 0 0 0-2 2Zm-27.1 41.7-2 17.5-1.3 10.6-.4 4h-12.4c-10.3.1-12.3 0-12.2-.3s29.4-43 29.5-42.8-.5 5-1.2 11ZM0 824.6c.2 43.6.1 42.4 1.7 48.8 3.6 15.1 14.4 21.7 39.2 24 8.3.7 17.8 1 33.6.8 18.6-.2 25.6-.6 34.6-2.1 18.3-3.2 26.8-10.3 29.3-24.6 1-5.8 1-7.9 1-48v-39H106v33.9c0 20.6 0 35-.3 36.8-1 10.6-4.5 14.5-15 16.2l-5 .6c-4.7.4-27.6.4-32.2 0-13.6-1.2-18-4.6-19.3-15.2-.3-1.6-.4-12.4-.4-37.2l-.1-35H0Zm162.4 16.2V897H195v-42c0-33.5 0-42 .3-42s15 19 33.1 42l32.9 42h50V784.6h-32.8v42c0 33.5 0 42-.3 42s-15-18.9-32.8-42l-32.4-42h-50.7v56.2Zm172.1 0V897h33v-31.2h19.2c20.1 0 29.2.3 33.8.9 5.6.8 9 2.1 11.2 4.4 3.1 3.3 3.9 7 3.9 19.3v6.6h33v-11.7a80 80 0 0 0-1.2-19.7c-1.7-6.6-5.1-9.6-13.4-11.6l-4.4-1c-1.1-.2-.6-.5 1.9-1.2 9.3-2.8 14.1-8.2 16.3-18 .6-3 .6-3.3.6-13a56 56 0 0 0-1.5-17.6c-3-10.4-10.8-15.6-26.3-17.6-6.5-.8-11.1-1-58.4-1h-47.7V841Zm83.3-31.2 7.3.6c5.3 1 8 2.9 9 6.5 1 3.3 1 14-.1 17.4-1.3 4-4.4 5.8-11.8 6.7-1.4.2-12 .4-28.5.4l-26.2.2v-32H390c12.5 0 25 0 27.7.2Zm72.6 31.2V897H614v-25.5h-90.5V852h83.8v-23.4h-83.8v-19.4h88.4v-24.7H490.5v56.2Zm191.3-55.4-60.2 111.1c-.2.4 1 .5 17.7.5H657l5-10 5.2-10.1H738l5.2 10 5.1 10h18.1l18.1.1-1.4-2.8-30.6-56.2-29.2-53.4h-41.1Zm32.7 45.5 11.5 22.4h-46.7l11.5-22.5c7.8-15.4 11.5-22.5 11.8-22.4s5.6 10.1 11.9 22.5Zm82.5 9.9V897H906v-26h-75.7v-86.4h-33.5v56.2ZM422 933c-18.3 1.2-24.9 5.6-27 18a138 138 0 0 0 0 30.8 20 20 0 0 0 4.7 10.7c4.3 4.7 10.5 6.5 24 7.3 6.4.3 28 .1 32-.3 9.3-1 14.2-2.7 17.5-6 4.1-4.2 5-8.5 5-24.5v-7h-44.7v12.6h25.6l-.1 2.8c-.1 2.4-.2 2.9-.8 4-1.3 2.3-4 3.1-11.4 3.6-8 .4-20.8.1-24.6-.7a12.8 12.8 0 0 1-5.5-2.4 10.5 10.5 0 0 1-2.5-5 125 125 0 0 1 0-20.3 11 11 0 0 1 2.4-5.6 12.2 12.2 0 0 1 5.5-2.5c4.4-1 22.5-1.1 28.2-.3s7.3 2.2 7.8 6.7l.2 1.4h19v-1.7a52.9 52.9 0 0 0-1-9.3 12.8 12.8 0 0 0-3.2-6.1c-3-3.2-7.5-4.8-16.6-5.8-3.1-.4-29.4-.6-34.4-.3Zm-209.9 33.4v32.9h72.4v-15h-53V973h49.2v-13.7h-49.3V948h51.8v-14.4h-71v32.8Zm82.7 0v32.9h19.4v-24.7l.1-24.6 19.2 24.6 19.2 24.6h14.8l14.7.1v-65.7H363v24.6c0 14.1-.1 24.6-.2 24.5L343.4 958l-18.9-24.5h-29.8v32.8Zm195.2 0v32.9h19.8v-65.7h-19.9v32.8Zm33 0v32.9h19.3V950l19.3 24.6 19.2 24.6h14.8l14.7.1v-65.7H591v24.6c0 14.1-.1 24.6-.3 24.5l-19-24.6-19-24.5H523v32.8Zm100.7 0v32.9H696v-15h-53V973h49.1v-13.7H643V948h51.8v-14.4h-71.1v32.8Z"/></g></svg>
