<svg xmlns="http://www.w3.org/2000/svg" width="1920" height="210" viewBox="0 0 240 26.25"><g stroke-linecap="round" stroke-width=".529"><path fill="none" stroke="silver" d="M40.198 8.81V6.919h39.711V8.81m3.069 0V6.919h7.08V8.81m6.49 0V6.919h29.247V8.81m-125.53 0V6.919h34.038V8.81" transform="matrix(1.9039 0 0 1.8837 -.001 -.004)"/><g fill="#6cb6ff" aria-label="_Texture2D (&quot;2D Texture&quot;,2D)=&quot;white&quot;{}"><path d="M59.31 23.992v-.986h.829q1.149 0 1.726-.649.582-.649.582-1.946 0-1.407-.582-2.103-.577-.7-1.726-.7h-.808l-.126-.987h.934q3.41 0 3.41 3.79 0 3.582-3.41 3.582zm-.976 0v-7.371h1.05v7.371zm-6.234 0V22.83q1.727-.945 2.577-1.973.855-1.028.855-2.118 0-.633-.315-.95-.315-.317-.955-.317-.425 0-.887.244-.461.244-.792.65l-.724-.712q.362-.514 1.028-.825.667-.312 1.396-.312 1.18 0 1.763.556.588.55.588 1.666 0 1.121-.72 2.154-.713 1.028-2.177 1.978v1.122zm.315 0v-.965h4.534v.965zm-3.725.104q-1.422 0-2.199-.737-.77-.742-.77-2.128 0-1.35.655-2.098.656-.747 1.852-.747 1.128 0 1.742.675.62.675.62 1.962 0 .379-.032.706h-3.904v-.841h2.928q0-.742-.357-1.137-.357-.4-.986-.4-.709 0-1.102.478-.389.478-.389 1.35 0 .955.536 1.453.54.499 1.532.499.346 0 .682-.037.336-.041.682-.109l.136.966q-.493.093-.902.12t-.724.025zm-7.21-2.47-.325-1.724h.43q.095-1.516 1.533-1.516.86 0 1.248.488.389.488.389 1.578h-1.102q0-.602-.184-.867-.178-.265-.582-.265-.709 0-1.06.603-.347.597-.347 1.702zm-2.35 2.366v-.903h3.715v.903zm1.238 0V18.49h.903l.21 1.578v3.924zm-1.028-4.599v-.903h1.857l.105.903zm-4.324 4.703q-.876 0-1.359-.514-.477-.519-.477-1.458V18.49h1.112v3.634q0 .472.273.732.273.254.766.254.609 0 .918-.379.31-.384.31-1.282l.283 1.484h-.367q-.131.561-.514.862-.383.301-.945.301zm1.637-.052-.094-1.318v-.966h1.112v1.236l.766.114v.882zm-.094-1.609V18.49h1.112v3.634zm-6.286 1.661q-1.264 0-1.83-.519-.562-.519-.562-1.661v-.934h1.112v.882q0 .654.32.95.325.296 1.065.296.263 0 .556-.026.294-.031.672-.078l.126.966q-.367.062-.719.093-.346.031-.74.031zm-2.392-2.7V16.83h1.112v4.568zm-1.396-2.003v-.903h5.037v.903zm-6.107 4.6 2.214-3.032 1.71-2.471h1.26l-2.299 3.125-1.626 2.377zm3.924 0-1.69-2.378-2.234-3.125h1.259l1.71 2.47 2.215 3.032zm-7.093.103q-1.422 0-2.199-.737-.771-.742-.771-2.128 0-1.35.656-2.098.656-.747 1.852-.747 1.128 0 1.742.675.619.675.619 1.962 0 .379-.031.706h-3.904v-.841H18.1q0-.742-.357-1.137-.357-.4-.987-.4-.708 0-1.101.478-.389.478-.389 1.35 0 .955.535 1.453.54.499 1.533.499.346 0 .682-.037.335-.041.682-.109l.136.966q-.493.093-.902.12-.41.025-.724.025zm-7.356-.104v-7.371h1.049v7.371zm-2.204-6.385v-.986h5.457v.986zm-6.192 7.3v-.915h5.247v.914z"/><path fill="#adbac7" d="m154.211 26.253.42-3.582h1.217l-.63 3.582z"/><path fill="#f47067" d="M177.744 19.49v-.965h5.247v.965zm0 2.596v-.966h5.247v.966zm-11.407 1.9V23h.829q1.15 0 1.726-.65.583-.648.583-1.946 0-1.407-.583-2.102-.577-.701-1.726-.701h-.808l-.126-.986h.934q3.41 0 3.41 3.79 0 3.581-3.41 3.581zm-.976 0v-7.372h1.05v7.372zm-6.233 0v-1.163q1.726-.945 2.576-1.973.855-1.027.855-2.118 0-.633-.315-.95-.315-.316-.955-.316-.425 0-.886.244-.462.244-.793.649l-.724-.712q.362-.513 1.029-.825t1.395-.311q1.18 0 1.763.555.588.55.588 1.666 0 1.122-.719 2.155-.713 1.028-2.177 1.978v1.121zm.315 0v-.966h4.533v.966z"/><path fill="#96d0ff" d="m222.904 19.943-.105-3.323h1.218l-.105 3.323zm2.12 0-.105-3.323h1.217l-.105 3.323zm-6.328 4.153q-1.422 0-2.198-.738-.772-.742-.772-2.128 0-1.35.656-2.097.656-.748 1.852-.748 1.129 0 1.742.675.62.675.62 1.962 0 .38-.032.706h-3.904v-.84h2.928q0-.743-.357-1.138-.356-.4-.986-.4-.708 0-1.102.478-.388.478-.388 1.35 0 .955.535 1.453.54.499 1.532.499.346 0 .682-.036.336-.042.682-.11l.137.966q-.493.093-.903.12-.409.025-.724.025zm-5.824 0q-1.264 0-1.831-.52-.561-.519-.561-1.66v-.935h1.112v.882q0 .654.32.95.325.296 1.065.296.262 0 .556-.026.294-.03.672-.078l.126.966q-.368.062-.72.093-.345.031-.739.031zm-2.393-2.7v-4.568h1.113v4.568zm-1.395-2.004v-.903h5.037v.903zm-3.704 4.6V18.8h1.112v5.192zm-2.12 0v-.904h2.224v.904zm3.127 0v-.904h1.815v.904zm-2.812-4.6v-.903h2.917v.903zm2.324-1.775q-.32 0-.551-.223-.226-.229-.226-.545 0-.322.226-.545.23-.224.551-.224.325 0 .55.224.227.223.227.545 0 .316-.226.545-.226.223-.551.223zm-5.473 6.375V20.41q0-.524-.262-.805-.262-.285-.734-.285-1.312 0-1.312 1.578l-.326-1.412h.43q.048-.556.41-.826.362-.275 1.06-.275.881 0 1.364.53t.483 1.495v3.582zm-3.42 0v-7.787h1.112v7.787zm-3.4 0-.651-4.371h-.084l-.457-1.132h1.018l.656 4.672h.095l.472-4.672h1.102l-.787 5.503zm-2.781 0-.63-5.503h1.05l.42 4.672h.094l.655-4.672h1.018l-.467 1.132h-.073l-.65 4.37zm-5.699-4.05-.104-3.322h1.217l-.105 3.323zm2.12 0-.105-3.322h1.218l-.105 3.323zm-39.898 0-.105-3.322h1.218l-.105 3.323zm2.12 0-.105-3.322h1.217l-.105 3.323zm-6.328 4.154q-1.422 0-2.198-.738-.772-.742-.772-2.128 0-1.35.656-2.097.656-.748 1.852-.748 1.129 0 1.742.675.62.675.62 1.962 0 .38-.032.706h-3.904v-.84h2.928q0-.743-.357-1.138-.356-.4-.986-.4-.708 0-1.102.478-.388.478-.388 1.35 0 .955.535 1.453.54.499 1.532.499.346 0 .682-.037.336-.04.682-.109l.137.966q-.493.093-.903.12-.409.025-.724.025zm-7.21-2.472-.324-1.723h.43q.094-1.516 1.532-1.516.86 0 1.249.488t.388 1.578h-1.102q0-.602-.183-.867-.179-.264-.583-.264-.708 0-1.06.602-.346.597-.346 1.702zm-2.35 2.368v-.904h3.715v.904zm1.239 0v-5.503h.902l.21 1.578v3.925zm-1.029-4.6v-.903h1.858l.105.903zm-4.323 4.704q-.876 0-1.36-.514-.477-.52-.477-1.46V18.49h1.113v3.634q0 .472.273.732.272.254.766.254.608 0 .918-.379.31-.384.31-1.282l.283 1.485h-.368q-.13.56-.514.861-.383.302-.944.302zm1.637-.052-.095-1.32v-.965h1.113v1.236l.766.114v.883zm-.095-1.61V18.49h1.113v3.634zm-6.285 1.662q-1.265 0-1.832-.52-.56-.519-.56-1.66v-.935h1.111v.882q0 .654.32.95.326.296 1.066.296.262 0 .556-.026.294-.03.671-.078l.126.966q-.367.062-.719.093-.346.031-.74.031zm-2.393-2.7v-4.568h1.112v4.568zm-1.396-2.004v-.903h5.037v.903zm-6.107 4.6 2.214-3.032 1.71-2.47h1.26l-2.298 3.124-1.627 2.378zm3.925 0-1.69-2.378-2.235-3.125h1.26l1.71 2.471 2.214 3.032zm-7.094.104q-1.422 0-2.198-.738-.772-.742-.772-2.128 0-1.35.656-2.097.656-.748 1.852-.748 1.128 0 1.742.675.62.675.62 1.962 0 .38-.032.706h-3.904v-.84h2.928q0-.743-.357-1.138-.357-.4-.986-.4-.709 0-1.102.478-.388.478-.388 1.35 0 .955.535 1.453.54.499 1.532.499.346 0 .682-.037.336-.04.682-.109l.136.966q-.493.093-.902.12t-.724.025zm-7.356-.104V16.62h1.05v7.372zm-2.204-6.385v-.987h5.457v.987zm-11.302 6.385v-.987h.83q1.148 0 1.726-.649.582-.648.582-1.946 0-1.407-.582-2.103-.578-.7-1.727-.7h-.808l-.126-.987h.934q3.41 0 3.41 3.79 0 3.582-3.41 3.582zm-.976 0V16.62h1.05v7.372zm-6.233 0v-1.163q1.726-.945 2.576-1.973.855-1.028.855-2.118 0-.633-.314-.95-.315-.316-.955-.316-.425 0-.887.244t-.792.648l-.724-.71q.362-.515 1.028-.826t1.396-.312q1.18 0 1.763.556.587.55.587 1.666 0 1.122-.718 2.155-.714 1.027-2.178 1.978v1.12zm.315 0v-.966h4.533v.966zm-5.814-4.05-.105-3.322h1.218l-.105 3.323zm2.12 0-.105-3.322h1.217l-.104 3.323z"/><path fill="#daaa3f" d="M235.927 25.104q-.304 0-.514-.031-.205-.026-.378-.073l.126-.882q.183.02.351.036.173.015.32.015.373 0 .567-.254.2-.26.2-.732 0-.431-.121-.841t-.121-.883q0-.493.362-.784.362-.296 1.013-.306v-.176q-.651-.012-1.013-.291-.362-.286-.362-.8 0-.451.12-.861.121-.41.121-.862 0-.426-.199-.66-.194-.233-.567-.233-.147 0-.32.015-.168.011-.351.036l-.126-.882q.173-.047.378-.073.21-.03.514-.03.855 0 1.322.477.472.472.472 1.35 0 .436-.11.85-.11.416-.11.894 0 .176.147.316.152.14.378.24.23.093.472.145.241.046.42.046v.82q-.252 0-.588.068-.33.062-.583.228-.246.161-.246.452 0 .457.11.882t.11.862q0 .909-.472 1.412-.467.509-1.322.509zm-4.04 0q-.855 0-1.328-.509-.467-.503-.467-1.412 0-.436.11-.862t.11-.882q0-.29-.251-.452-.247-.166-.582-.228-.331-.068-.583-.068v-.82q.184 0 .42-.047.241-.052.467-.145.23-.099.378-.239.152-.14.152-.316 0-.478-.11-.893-.11-.416-.11-.852 0-.877.466-1.35.472-.477 1.328-.477.31 0 .514.031.205.026.378.073l-.126.882q-.184-.026-.357-.036-.168-.015-.315-.015-.372 0-.572.234-.194.233-.194.659 0 .451.12.862.122.41.122.861 0 .514-.362.8-.362.28-1.013.29v.177q.65.011 1.013.306.362.29.362.784 0 .472-.121.883-.12.41-.12.84 0 .473.193.733.2.254.572.254.147 0 .315-.015.173-.015.357-.037l.126.883q-.173.047-.378.073-.205.03-.514.03zM172 25.03v-.934h.147q1.243 0 1.915-1.002.677-1.002.677-2.819 0-1.786-.677-2.772-.672-.986-1.915-.986H172v-.935h.251q1.71 0 2.65 1.23.94 1.226.94 3.463 0 2.269-.94 3.515-.94 1.24-2.65 1.24zm-96.816 0q-1.705 0-2.65-1.24-.938-1.246-.938-3.515 0-2.237.939-3.463.944-1.23 2.65-1.23h.251v.935h-.147q-1.243 0-1.92.986-.672.986-.672 2.772 0 1.817.672 2.819.677 1.002 1.92 1.002h.147v.934z"/></g><path fill="silver" d="M226.144 2.045h1.291v1.1h-1.29v2.067H224.8V.082h1.343zm-7.618 2.212q1.616-.338 2.482-1.028.87-.69 1.002-1.599h-3.033V.571h4.512q.006 1.874-1.138 3.068-1.139 1.194-3.343 1.687zm.986 1.422h1.228v.903h1.028V5.68h1.207v2.746q.708-.342 1.055-.908.351-.571.362-1.225v-.727h1.28v.695q-.006.732.373 1.33.383.596 1.17.903l-.693.996q-1.018-.415-1.495-1.417-.231.478-.609.841-.372.364-.887.576l-.556-.789v.696h-3.463zm2.256 2.71v-.83h-1.028v.83zm-10.053-7.018h3.83V.426h1.333v3.862h-2.581v.8h3.694v1.059h-8.71v-1.06h3.673v-.799h-2.56V.426h1.321zm-1.385 5.315h1.343v1.62h5.331v1.059h-6.674zm5.216-3.457v-.841h-3.83v.841zm-7.524 6.302h-1.354V.083h1.354zm-7.997-2.678q1.223-.572 2.015-1.272.798-.701 1.217-1.553.425-.856.536-1.92h-3.253V1.069h4.617q-.006 1.516-.415 2.757-.409 1.24-1.39 2.279-.976 1.038-2.623 1.806zm-29.708-4.85h-5.31V.956h2.057V0h1.333v.955h1.92zm-4.838 2.088q-.005-.52.278-.919.284-.405.793-.628.514-.229 1.164-.229.651 0 1.165.229.514.223.803.628.294.4.3.919-.006.519-.3.919-.289.4-.803.617-.514.218-1.165.218-.655 0-1.164-.218t-.793-.617q-.283-.4-.278-.92zm1.018 3.79q0-.52.394-.893.398-.38 1.138-.571.745-.198 1.763-.198 1.013 0 1.753.198.74.192 1.138.57.404.374.404.893 0 .51-.404.883-.399.374-1.144.571-.74.197-1.747.197-1.012 0-1.757-.197-.746-.197-1.144-.571-.394-.374-.394-.883zm.231-3.79q-.005.374.257.576.268.202.73.202.461 0 .74-.202.277-.202.277-.576 0-.369-.278-.576-.278-.208-.74-.213-.461.005-.729.213-.262.202-.257.576zm1.175 3.79q0 .321.483.487.483.167 1.406.167.903 0 1.38-.167t.478-.488q0-.648-1.858-.664-.934.01-1.411.171-.478.161-.478.493zm2.498-3.832h1.301v-.83h-1.28v-1.06h1.28V.084h1.333v6.022h-1.333v-.997h-1.301zm-5.971 2.357h-2.046v3.125h-1.365V6.406h-1.952v3.125h-1.374V6.406h-2.004v-1.07h8.74zm-7.86-3.872q0-.644.435-1.127.436-.483 1.218-.747.787-.265 1.81-.265 1.023 0 1.81.265.792.264 1.233.747.44.483.44 1.127 0 .628-.44 1.1-.44.467-1.233.722-.787.254-1.81.254-1.018 0-1.805-.254t-1.223-.722q-.435-.472-.435-1.1zm1.375 0q-.006.493.55.763.562.27 1.538.275.981-.005 1.537-.275.562-.27.562-.763 0-.514-.562-.795-.556-.28-1.537-.285-.976.005-1.537.285-.557.28-.551.795zm-14.057 3.363h-8.741V4.85h8.741zM136.218.26h6.61v2.523h-5.257v.55h5.436V4.34h-6.769V1.827h5.247v-.55h-5.268zm.052 6.219h6.6v2.948h-6.6zm5.268 1.89v-.842h-3.957v.841zm-7.671 1.183h-1.354V.083h1.354zm-7.713-5.44q0-1.013.32-1.776.325-.763.897-1.173.577-.415 1.312-.415.718 0 1.285.415.572.41.897 1.173.326.763.326 1.776 0 1.017-.326 1.785-.325.764-.897 1.179-.567.41-1.285.41-.735 0-1.312-.41-.572-.415-.897-1.179-.32-.768-.32-1.785zm1.29 0q0 .69.153 1.183.152.488.43.743.283.249.656.244.362.005.635-.244.278-.255.43-.743.152-.493.152-1.183t-.152-1.179-.43-.737q-.273-.254-.635-.254-.373 0-.656.254-.278.25-.43.737t-.153 1.179zm-7.954-2.17h-3.536v1.557h3.137v1.038h-3.137v1.786q1.175-.01 2.093-.067.919-.057 1.873-.203l.126 1.07q-1.054.15-2.109.207-1.055.052-2.487.052h-.819V.862h4.859zm1.29-1.859h1.355v9.448h-1.354zm-10.409 1.9h-.934v4.18q.598-.042 1.165-.11l.084.955q-1.29.224-2.713.296-1.416.073-3.07.078l-.125-1.09 1.08-.005V1.983h-.818V.913h5.331zm-3.211 4.283q.493-.01.986-.031V1.983h-.986zm2.928-2.746h1.469V.083h1.322v9.448h-1.322V4.58h-1.47zm-5.814 4.963h-8.741v-1.09h3.683V5.97H96.54V2.793h5.404V1.755H96.53V.695h6.737v3.136h-5.384v1.06h5.604v1.08h-2.938v1.421h3.725zm-9.287-.052h-8.741v-1.1h8.741zM86.928.914h7.325v1.059h-1.344v2.865h1.302v1.039H86.97V4.838h1.28V1.973h-1.322zm4.66 3.924V1.973h-1.995v2.865zm-37.33 1.06h-8.742v-1.05h8.741zM46.585.26h6.612v2.523H47.94v.55h5.436V4.34h-6.769V1.827h5.247v-.55h-5.268zm.053 6.219h6.6v2.948h-6.6zm5.268 1.89v-.842H47.95v.841zm-7.671 1.183h-1.354V.083h1.354zm-7.713-5.44q0-1.013.32-1.776.325-.763.897-1.173.577-.415 1.312-.415.719 0 1.285.415.572.41.898 1.173.325.763.325 1.776 0 1.017-.325 1.785-.326.763-.898 1.179-.566.41-1.285.41-.735 0-1.312-.41-.572-.416-.897-1.179-.32-.768-.32-1.785zm1.29 0q0 .69.153 1.183.152.488.43.743.283.249.656.244.362.005.635-.244.278-.255.43-.743.152-.493.152-1.183t-.152-1.179-.43-.737q-.273-.254-.635-.254-.373 0-.656.254-.278.25-.43.737t-.152 1.179zM29.546.82q-.006.577.383 1.132.393.55 1.149.955.755.4 1.805.53l-.525 1.07q-1.228-.177-2.135-.707-.903-.535-1.38-1.318-.483.783-1.386 1.318-.897.53-2.109.706l-.535-1.07q1.039-.129 1.79-.529.755-.405 1.143-.955.388-.555.393-1.132V.364h1.407zm-5.069 4.403h8.71v1.08H29.47V9.53H28.15V6.302h-3.673zM23.238 7.06h-1.333V4.755h-1.763v.81h-4.544V.706h1.343V2.16h1.879V.706h1.322v.966h1.763V.094h1.333zm-6.36-.695h1.354v1.941h5.205v1.06H16.88zm1.942-1.838v-1.36h-1.878v1.36zm3.085-.83V2.74h-1.763v.955z" aria-label="기본값" font-family="Pretendard" font-size="5.644" font-weight="bold"/></g></svg>